<?xml version="1.0" encoding="utf-8"?>
<!-- Generator: Adobe Illustrator 15.1.0, SVG Export Plug-In . SVG Version: 6.00 Build 0)  -->
<!DOCTYPE svg PUBLIC "-//W3C//DTD SVG 1.0//EN" "http://www.w3.org/TR/2001/REC-SVG-20010904/DTD/svg10.dtd">
<svg version="1.0" xmlns="http://www.w3.org/2000/svg" xmlns:xlink="http://www.w3.org/1999/xlink" x="0px" y="0px"
	 width="385.359px" height="648px" viewBox="118.128 0 385.359 648" enable-background="new 118.128 0 385.359 648"
	 xml:space="preserve">
<g id="Layer_4">
</g>
<g id="Layer_3">
	<path fill="#2AB24B" d="M471.834,4.653H151.897c-17.112,0-31.032,13.923-31.032,31.028V615.97c0,17.105,13.92,31.029,31.032,31.029
		h319.937c17.108,0,31.028-13.924,31.028-31.029V35.681C502.862,18.576,488.942,4.653,471.834,4.653z M260.567,45.871h102.936
		c5.635,0,10.199,4.57,10.199,10.203c0,5.631-4.564,10.201-10.199,10.201H260.567c-5.634,0-10.199-4.57-10.199-10.201
		C250.368,50.441,254.932,45.871,260.567,45.871z M313.188,618.195c-13.442,0-24.334-10.898-24.334-24.336
		c0-13.439,10.893-24.338,24.334-24.338c13.438,0,24.333,10.898,24.333,24.338C337.521,607.297,326.627,618.195,313.188,618.195z
		 M463.487,542.918H162.683V108.523h300.804V542.918z"/>
</g>
<g id="Layer_2" display="none">
	<linearGradient id="SVGID_1_" gradientUnits="userSpaceOnUse" x1="835.3669" y1="1030.9998" x2="940.3669" y2="1030.9998">
		<stop  offset="0.0061" style="stop-color:#2AB24B"/>
		<stop  offset="0.4606" style="stop-color:#2CB349"/>
		<stop  offset="0.6243" style="stop-color:#33B544"/>
		<stop  offset="0.7411" style="stop-color:#3EB93A"/>
		<stop  offset="0.8355" style="stop-color:#4FBF2D"/>
		<stop  offset="0.9162" style="stop-color:#65C61B"/>
		<stop  offset="0.9866" style="stop-color:#80CF05"/>
		<stop  offset="1" style="stop-color:#86D100"/>
	</linearGradient>
	<polygon display="inline" fill="url(#SVGID_1_)" points="940.367,1003.5 940.367,959.5 835.367,1011.5 835.367,1048.5 
		940.367,1102.5 940.367,1058.5 880.367,1033.5 	"/>
	<linearGradient id="SVGID_2_" gradientUnits="userSpaceOnUse" x1="1053.3669" y1="1030.9998" x2="1158.3669" y2="1030.9998">
		<stop  offset="0.0061" style="stop-color:#2AB24B"/>
		<stop  offset="0.4606" style="stop-color:#2CB349"/>
		<stop  offset="0.6243" style="stop-color:#33B544"/>
		<stop  offset="0.7411" style="stop-color:#3EB93A"/>
		<stop  offset="0.8355" style="stop-color:#4FBF2D"/>
		<stop  offset="0.9162" style="stop-color:#65C61B"/>
		<stop  offset="0.9866" style="stop-color:#80CF05"/>
		<stop  offset="1" style="stop-color:#86D100"/>
	</linearGradient>
	<polygon display="inline" fill="url(#SVGID_2_)" points="1053.367,1058.5 1053.367,1102.5 1158.367,1050.5 1158.367,1013.5 
		1053.367,959.5 1053.367,1003.5 1113.367,1028.5 	"/>
	<linearGradient id="SVGID_3_" gradientUnits="userSpaceOnUse" x1="856.9919" y1="804.4998" x2="856.9919" y2="670.4998">
		<stop  offset="0.0061" style="stop-color:#2AB24B"/>
		<stop  offset="0.4606" style="stop-color:#2CB349"/>
		<stop  offset="0.6243" style="stop-color:#33B544"/>
		<stop  offset="0.7411" style="stop-color:#3EB93A"/>
		<stop  offset="0.8355" style="stop-color:#4FBF2D"/>
		<stop  offset="0.9162" style="stop-color:#65C61B"/>
		<stop  offset="0.9866" style="stop-color:#80CF05"/>
		<stop  offset="1" style="stop-color:#86D100"/>
	</linearGradient>
	<rect x="649.367" y="670.5" display="inline" fill="url(#SVGID_3_)" width="415.25" height="134"/>
	<linearGradient id="SVGID_4_" gradientUnits="userSpaceOnUse" x1="945.3669" y1="1030.4998" x2="1048.3669" y2="1030.4998">
		<stop  offset="0.0061" style="stop-color:#2AB24B"/>
		<stop  offset="0.4606" style="stop-color:#2CB349"/>
		<stop  offset="0.6243" style="stop-color:#33B544"/>
		<stop  offset="0.7411" style="stop-color:#3EB93A"/>
		<stop  offset="0.8355" style="stop-color:#4FBF2D"/>
		<stop  offset="0.9162" style="stop-color:#65C61B"/>
		<stop  offset="0.9866" style="stop-color:#80CF05"/>
		<stop  offset="1" style="stop-color:#86D100"/>
	</linearGradient>
	<polygon display="inline" fill="url(#SVGID_4_)" points="1012.367,916.5 1048.367,916.5 984.367,1144.5 945.367,1144.5 	"/>
	
		<linearGradient id="SVGID_5_" gradientUnits="userSpaceOnUse" x1="925.3308" y1="-212.0315" x2="838.4547" y2="55.3459" gradientTransform="matrix(1 0 0 -1 -25.02 657.519)">
		<stop  offset="0.0061" style="stop-color:#2AB24B"/>
		<stop  offset="0.4606" style="stop-color:#2CB349"/>
		<stop  offset="0.6243" style="stop-color:#33B544"/>
		<stop  offset="0.7411" style="stop-color:#3EB93A"/>
		<stop  offset="0.8355" style="stop-color:#4FBF2D"/>
		<stop  offset="0.9162" style="stop-color:#65C61B"/>
		<stop  offset="0.9866" style="stop-color:#80CF05"/>
		<stop  offset="1" style="stop-color:#86D100"/>
	</linearGradient>
	<path display="inline" fill="url(#SVGID_5_)" d="M1071.746,813.847H641.999V657.876h429.747V813.847z M1056.288,673.337H657.447
		v125.018h398.841V673.337z"/>
	
		<image display="inline" overflow="visible" width="37" height="34" xlink:href="16519A05.jpg"  transform="matrix(16.3342 0 0 16.3342 629.3669 4.1345)">
	</image>
</g>
<g id="Ebene_3">
</g>
</svg>
